<?xml version="1.0" encoding="UTF-8"?>
<svg width="18px" height="19px" viewBox="0 0 18 19" version="1.1" xmlns="http://www.w3.org/2000/svg" xmlns:xlink="http://www.w3.org/1999/xlink">
    <title>DFB66E75-210D-412D-AB77-E87B84DD1DAD</title>
    <g id="User" stroke="none" stroke-width="1" fill="none" fill-rule="evenodd">
        <g id="Dashboard---PLP" transform="translate(-1203.000000, -34.000000)">
            <g id="notifications" transform="translate(1203.000000, 34.000000)">
                <path d="M15.6428036,15.1428571 L1.49994643,15.1428571 C1.38350893,15.1428571 1.28571429,15.0450625 1.28571429,14.928625 C1.28571429,14.8429241 1.33280357,14.7897277 1.3629375,14.7639732 C2.94778125,13.4242991 3.85714286,11.4647902 3.85714286,9.38980804 L3.85714286,6.99994643 C3.85714286,4.40027232 5.97170089,2.28571429 8.571375,2.28571429 C11.1712098,2.28571429 13.2857679,4.40027232 13.2857679,6.99994643 L13.2857679,9.38980804 C13.2857679,11.4647902 14.1951295,13.4242991 15.7817009,14.7657009 C15.8099464,14.7897277 15.8571964,14.8429241 15.8571964,14.928625 C15.8571964,15.0450625 15.7594018,15.1428571 15.6428036,15.1428571 M8.571375,17.7142857 C7.73308929,17.7142857 7.01859375,17.1769777 6.75329464,16.4285714 L10.3894554,16.4285714 C10.1241964,17.1769777 9.40978125,17.7142857 8.571375,17.7142857 M16.6097411,13.7826116 C15.314625,12.6871027 14.5714821,11.086067 14.5714821,9.38980804 L14.5714821,6.99994643 C14.5714821,3.69148214 11.88,1 8.571375,1 C5.26291071,1 2.57142857,3.69148214 2.57142857,6.99994643 L2.57142857,9.38980804 C2.57142857,11.086067 1.82828571,12.6871027 0.52453125,13.788558 C0.191169643,14.0740268 3.73034936e-14,14.4896339 3.73034936e-14,14.928625 C3.73034936e-14,15.7557411 0.672830357,16.4285714 1.49994643,16.4285714 L5.42173661,16.4285714 C5.72034375,17.8940848 7.01891518,19 8.571375,19 C10.1238348,19 11.4224063,17.8940848 11.7210134,16.4285714 L15.6428036,16.4285714 C16.4700804,16.4285714 17.1429107,15.7557411 17.1429107,14.928625 C17.1429107,14.4896339 16.9517411,14.0740268 16.6097411,13.7826116" id="Fill-1" fill="#195477"></path>
                <circle id="Oval" fill="#F88801" cx="14" cy="4" r="4"></circle>
            </g>
        </g>
    </g>
</svg>